<svg xmlns="http://www.w3.org/2000/svg" xmlns:svgjs="http://svgjs.dev/svgjs" xmlns:xlink="http://www.w3.org/1999/xlink" width="1500" height="367" version="1.1" viewBox="0 0 1500 367"><g transform="matrix(1,0,0,1,-0.9090909090909918,0.08892557875859097)"><svg xmlns="http://www.w3.org/2000/svg" xmlns:xlink="http://www.w3.org/1999/xlink" width="1500" height="367" data-background-color="#ffffff" preserveAspectRatio="xMidYMid meet" viewBox="0 0 396 97"><g id="tight-bounds" transform="matrix(1,0,0,1,0.2400000000000091,-0.0235034908435523)"><svg width="395.52" height="97.045" viewBox="0 0 395.52 97.045"><g><svg width="395.52" height="97.045" viewBox="0 0 624.129 153.136"><g transform="matrix(1,0,0,1,228.6088087414138,48.866199571734484)"><svg width="395.52" height="55.404" viewBox="0 0 395.52 55.404"><g id="textblocktransform"><svg id="textblock" width="395.52" height="55.404" viewBox="0 0 395.52 55.404"><g><svg width="395.52" height="55.404" viewBox="0 0 395.52 55.404"><g transform="matrix(1,0,0,1,0,0)"><svg width="395.52" height="55.404" data-palette-color="#ffac41" viewBox="0.65 -38.7 280.18 39.25"><path id="text-0" fill="#ffac41" d="M0.65-4.55L4.55-9.95Q8.8-5.7 13.05-5.7L13.05-5.7Q15.25-5.7 16.57-6.73 17.9-7.75 17.9-9.38 17.9-11 16.3-12.13 14.7-13.25 12.43-14.1 10.15-14.95 7.9-16.03 5.65-17.1 4.05-19.1 2.45-21.1 2.45-23.95L2.45-23.95Q2.45-28.45 6.2-31.73 9.95-35 15.1-35L15.1-35Q17.45-35 19.65-34.5 21.85-34 23.9-33.05L23.9-33.05 20.5-25.75Q19.1-26.85 16.68-27.78 14.25-28.7 12.43-28.7 10.6-28.7 9.47-27.83 8.35-26.95 8.35-25.5 8.35-24.05 9.95-22.93 11.55-21.8 13.83-20.95 16.1-20.1 18.38-19.07 20.65-18.05 22.25-16.05 23.85-14.05 23.85-11.2L23.85-11.2Q23.85-6.5 20.1-2.98 16.35 0.55 11.35 0.55L11.35 0.55Q7.6 0.55 4.7-1.25L4.7-1.25Q2.15-2.8 1.1-4L1.1-4 0.65-4.55ZM42.65-12.65Q42.65-16.1 42.05-17.25 41.45-18.4 39.25-18.4 37.05-18.4 34.25-16.65L34.25-16.65 34.25-13 34.8-1.25 28.05 0 28.65-12.15 28.05-37.45 34.9-38.7 34.25-25.75 34.25-19.9Q35-20.9 35.95-21.85 36.9-22.8 38.9-24 40.9-25.2 43.17-25.2 45.45-25.2 47-23.43 48.55-21.65 48.55-18.6L48.55-18.6 48.25-13 48.8-1 42.05 0.25 42.65-12.65ZM52.8-10.45Q52.8-16.85 56.25-21.3 59.7-25.75 64.32-25.75 68.95-25.75 71.52-22.75 74.09-19.75 74.09-14.8L74.09-14.8Q74.09-8.2 70.77-3.83 67.45 0.55 62.4 0.55L62.4 0.55Q58.25 0.55 55.52-2.58 52.8-5.7 52.8-10.45L52.8-10.45ZM68.5-12.2L68.5-12.2Q68.5-19.45 63.55-19.45L63.55-19.45Q58.4-19.45 58.4-12.65L58.4-12.65Q58.4-9.1 59.85-7.1 61.3-5.1 63.67-5.1 66.05-5.1 67.27-6.93 68.5-8.75 68.5-12.2ZM98.94-14.4L100.69-6.25 101.34-6.25 102.94-13.1 105.54-25.45 111.64-24.7 107.99-12.3 104.94-0.6 96.74 0.15 93.99-12 93.74-12.8 90.39-0.6 82.44 0.15 79.54-12 76.09-24.15 82.64-25.4 84.69-14.4 86.49-6.25 87.14-6.25 91.44-20.5 90.39-24.15 96.84-25.4 98.94-14.4ZM113.99-24.2L116.89-24.2 116.89-29.65 123.64-30.95 122.99-24.2 129.04-24.2 128.49-20.1 122.79-20.1 122.54-9.65Q122.54-7.3 122.99-6.53 123.44-5.75 124.64-5.75 125.84-5.75 127.84-6.3L127.84-6.3 128.14-2.75Q124.84 0 122.34 0 119.84 0 118.24-1.83 116.64-3.65 116.64-6.6L116.64-6.6 116.94-12.2 116.89-20.1 113.44-20.1 113.99-24.2ZM132.69-24.2L139.39-25.45 138.79-13 139.34-1.25 132.64 0 133.24-12.15 132.69-24.2ZM132.34-32.77Q132.34-34.45 133.64-35.77 134.94-37.1 136.64-37.1 138.34-37.1 139.24-36.18 140.14-35.25 140.14-33.4 140.14-31.55 138.86-30.23 137.59-28.9 135.91-28.9 134.24-28.9 133.29-30 132.34-31.1 132.34-32.77ZM159.39-12.65Q159.39-16.1 158.79-17.25 158.19-18.4 155.99-18.4 153.79-18.4 150.99-16.65L150.99-16.65 150.99-13 151.54-1.25 144.84 0 145.44-12.15Q145.24-18.85 144.34-24.15L144.34-24.15 150.39-25.45Q150.74-22.55 150.89-19.8L150.89-19.8Q151.64-20.8 152.59-21.78 153.54-22.75 155.59-23.98 157.64-25.2 159.74-25.2 161.84-25.2 163.29-23.85 164.74-22.5 165.14-20.15L165.14-20.15Q169.29-25.2 173.54-25.2L173.54-25.2Q176.19-25.2 177.74-23.43 179.29-21.65 179.29-18.6L179.29-18.6 178.99-13 179.54-1 172.79 0.25 173.39-12.65Q173.39-16.1 172.79-17.25 172.19-18.4 170.04-18.4 167.89-18.4 165.19-16.75L165.19-16.75 164.99-13 165.54-1 158.79 0.25 159.39-12.65ZM194.03-5.1L194.03-5.1Q195.48-5.1 197.08-5.85 198.68-6.6 199.58-7.35L199.58-7.35 200.48-8.1 202.78-5.3Q202.28-4.45 201.23-3.35 200.18-2.25 199.11-1.48 198.03-0.7 196.26-0.08 194.48 0.55 192.58 0.55L192.58 0.55Q188.53 0.55 185.98-2.53 183.43-5.6 183.43-10.45L183.43-10.45Q183.43-16.55 186.98-21.15 190.53-25.75 195.28-25.75L195.28-25.75Q198.93-25.75 200.96-23.7 202.98-21.65 202.98-17.95L202.98-17.95Q202.98-15.75 202.23-12.95L202.23-12.95 201.23-11.9 188.73-10.75Q189.58-5.1 194.03-5.1ZM194.03-20.6L194.03-20.6Q191.83-20.6 190.33-18.82 188.83-17.05 188.58-14.3L188.58-14.3 197.08-15.35Q197.23-16.5 197.23-17.25L197.23-17.25Q197.23-20.6 194.03-20.6ZM206.43-24.95L207.48-31Q211.68-32.5 215.83-32.5 219.98-32.5 222.63-30.4 225.28-28.3 225.28-25.1L225.28-25.1Q225.28-22.6 223.98-20.73 222.68-18.85 220.28-17.9L220.28-17.9Q223.78-16.6 225.33-14.68 226.88-12.75 226.88-9.8L226.88-9.8Q226.88-5.3 223.41-2.38 219.93 0.55 214.58 0.55L214.58 0.55Q212.03 0.55 209.61-0.13 207.18-0.8 206.03-1.5L206.03-1.5 204.88-2.2 206.98-8.25Q207.43-7.85 208.18-7.25 208.93-6.65 211.06-5.63 213.18-4.6 215.33-4.6 217.48-4.6 219.08-5.78 220.68-6.95 220.68-9.1 220.68-11.25 218.81-12.65 216.93-14.05 213.63-14.05L213.63-14.05 209.33-14.05 210.23-18.9 212.98-18.9Q215.73-18.9 217.28-20.15 218.83-21.4 218.83-23.35 218.83-25.3 217.53-26.38 216.23-27.45 214.41-27.45 212.58-27.45 210.66-26.83 208.73-26.2 206.43-24.95L206.43-24.95ZM237.63-17.85L237.63-17.85Q240.73-20.25 244.33-20.25 247.93-20.25 250.35-17.55 252.78-14.85 252.78-10.4 252.78-5.95 249.33-2.7 245.88 0.55 241.05 0.55 236.23 0.55 233.33-2.65 230.43-5.85 230.43-11.05 230.43-16.25 233.4-21.3 236.38-26.35 242.78-32.5L242.78-32.5 249.73-29.55Q240.23-23.4 237.63-17.85ZM242.13-15.1L242.13-15.1Q238.93-15.1 236.38-13.35L236.38-13.35Q236.28-12.25 236.28-11.65L236.28-11.65Q236.28-8.45 237.83-6.53 239.38-4.6 241.7-4.6 244.03-4.6 245.38-6 246.73-7.4 246.73-9.68 246.73-11.95 245.43-13.53 244.13-15.1 242.13-15.1ZM269.43-32.45L269.43-32.45Q274.58-32.45 277.7-28.38 280.83-24.3 280.83-17.6L280.83-17.6Q280.83-9.15 277.05-4.3 273.28 0.55 266.68 0.55L266.68 0.55Q261.63 0.55 258.45-3.58 255.28-7.7 255.28-14.35L255.28-14.35Q255.28-22.3 259.25-27.38 263.23-32.45 269.43-32.45ZM268.28-4.35Q271.48-4.35 272.75-6.8 274.03-9.25 274.03-15.5 274.03-21.75 272.73-24.28 271.43-26.8 268.18-26.8 264.93-26.8 263.5-24.43 262.08-22.05 262.08-16.18 262.08-10.3 263.58-7.33 265.08-4.35 268.28-4.35Z" class="wordmark-text-0" data-fill-palette-color="primary" opacity="1" transform="matrix(1,0,0,1,0,0)"/></svg></g></svg></g></svg></g></svg></g><g><svg width="215.529" height="153.136" viewBox="0 0 215.529 153.136"><g><svg xmlns="http://www.w3.org/2000/svg" xmlns:xlink="http://www.w3.org/1999/xlink" id="icon-0" width="215.529" height="153.136" x="0" y="0" class="icon-icon-0" data-fill-palette-color="accent" enable-background="new 0 0 100 100" version="1.1" viewBox="10 21.58 80 56.841" xml:space="preserve"><g fill="#ffac41" data-fill-palette-color="accent"><g fill="#ffac41" data-fill-palette-color="accent"><path fill="#ffac41" d="M68.984 60.346C64.954 60.346 61.425 62.979 59.485 66.916 58.256 65.969 56.801 65.418 55.243 65.418 53.416 65.418 51.732 66.172 50.388 67.438 48.649 64.7 45.934 62.934 42.881 62.934A7.95 7.95 0 0 0 39.536 63.678 3.36 3.36 0 0 0 36.665 62.061 3.366 3.366 0 0 0 33.298 65.426C33.298 66.631 33.936 67.686 34.889 68.281A12.7 12.7 0 0 0 34.06 70.246 5.4 5.4 0 0 0 33.313 70.84C32.114 68.949 30.238 67.731 28.131 67.731 24.511 67.731 21.573 71.321 21.573 75.749 21.573 77.228 22.552 78.421 23.76 78.421H32.501C32.589 78.421 32.675 78.413 32.76 78.401 32.836 78.413 32.914 78.421 32.994 78.421H49.213C49.341 78.421 49.464 78.409 49.587 78.394A2.4 2.4 0 0 0 49.928 78.421H60.56C60.723 78.421 60.885 78.401 61.041 78.366 61.224 78.399 61.406 78.421 61.595 78.421H76.374C78.416 78.421 80.071 76.4 80.071 73.903 80.071 66.418 75.104 60.346 68.984 60.346" data-fill-palette-color="accent"/><circle cx="68.984" cy="52.255" r="6.8" fill="#ffac41" data-fill-palette-color="accent"/><circle cx="42.881" cy="56.001" r="5.8" fill="#ffac41" data-fill-palette-color="accent"/><circle cx="55.243" cy="59.597" r="4.9" fill="#ffac41" data-fill-palette-color="accent"/><circle cx="28.131" cy="62.943" r="4" fill="#ffac41" data-fill-palette-color="accent"/></g><path fill="#ffac41" d="M10 21.58V66.58H22.254A6.94 6.94 0 0 1 21.123 62.803C21.123 58.938 24.267 55.793 28.131 55.793A7.01 7.01 0 0 1 34.251 59.397C34.412 59.331 34.577 59.274 34.744 59.221A8.8 8.8 0 0 1 34.075 55.86C34.075 51.005 38.025 47.053 42.881 47.053 46.646 47.053 49.858 49.432 51.115 52.762A7.81 7.81 0 0 1 59.235 52.678C59.224 52.49 59.207 52.305 59.207 52.114 59.207 46.723 63.593 42.337 68.984 42.337S78.761 46.724 78.761 52.114A9.75 9.75 0 0 1 75.695 59.208C78.285 60.864 80.379 63.452 81.667 66.581H90V21.581H10zM86 62.58H84.161A20 20 0 0 0 81.154 58.544 13.76 13.76 0 0 0 82.762 52.113C82.762 44.516 76.581 38.336 68.985 38.336 62.967 38.336 57.839 42.214 55.966 47.603A11.8 11.8 0 0 0 52.836 47.83C50.441 44.875 46.792 43.054 42.881 43.054 37.133 43.054 32.257 46.861 30.643 52.086A11 11 0 0 0 28.131 51.794C22.136 51.794 17.244 56.613 17.126 62.581H14V25.581H86z" data-fill-palette-color="accent"/></g></svg></g></svg></g></svg></g></svg><rect width="395.52" height="97.045" fill="none" stroke="none" visibility="hidden"/></g></svg></g></svg>